<svg xmlns="http://www.w3.org/2000/svg" viewBox="0 0 3264 1088" width="170" height="auto" fill="#0279d9" fill-rule="evenodd">
  <path d="M 1346.5,160.5 C 1378.95,170.094 1411.28,180.094 1443.5,190.5C 1443.83,236.739 1443.5,282.905 1442.5,329C 1373.83,329.5 1305.17,329.667 1236.5,329.5C 1236.5,298.167 1236.5,266.833 1236.5,235.5C 1273.17,235.5 1309.83,235.5 1346.5,235.5C 1346.5,210.5 1346.5,185.5 1346.5,160.5 Z" />
  <path d="M 947.5,183.5 C 948.833,183.5 950.167,183.5 951.5,183.5C 951.333,308.5 951.5,433.5 952,558.5C 958.056,583.89 973.89,599.057 999.5,604C 1027.33,605.926 1046.99,594.259 1058.5,569C 1060.68,563.372 1061.85,557.539 1062,551.5C 1062.5,504.835 1062.67,458.168 1062.5,411.5C 1102.83,411.5 1143.17,411.5 1183.5,411.5C 1183.03,463.866 1183.53,516.199 1185,568.5C 1191.57,590.961 1206.57,602.961 1230,604.5C 1257.04,602.456 1273.04,588.122 1278,561.5C 1278.5,511.501 1278.67,461.501 1278.5,411.5C 1319.17,411.5 1359.83,411.5 1400.5,411.5C 1400.02,464.546 1400.52,517.546 1402,570.5C 1411.05,594.109 1428.21,605.276 1453.5,604C 1474.25,599.734 1487.75,587.567 1494,567.5C 1495.31,514.537 1495.98,461.537 1496,408.5C 1535.81,398.179 1575.64,388.846 1615.5,380.5C 1616.66,441.459 1616.83,502.459 1616,563.5C 1610.57,631.575 1577.4,680.742 1516.5,711C 1452.46,736.622 1393.46,728.122 1339.5,685.5C 1288.11,726.511 1231.44,735.678 1169.5,713C 1151.53,705.445 1135.36,695.278 1121,682.5C 1064.07,728.349 1001.57,737.516 933.5,710C 873.966,680.479 839.799,632.646 831,566.5C 830.5,448.5 830.333,330.5 830.5,212.5C 869.722,203.278 908.722,193.611 947.5,183.5 Z" />
  <path d="M 2648.5,185.5 C 2651.02,185.848 2652.85,187.181 2654,189.5C 2673.9,218.68 2693.23,248.014 2712,277.5C 2657.92,309.459 2603.75,341.293 2549.5,373C 2643.17,373.333 2736.83,373.667 2830.5,374C 2890.41,380.526 2936.58,409.026 2969,459.5C 2986.24,488.773 2994.57,520.44 2994,554.5C 2999.05,584.552 3016.72,601.219 3047,604.5C 3078.28,601.55 3096.28,584.55 3101,553.5C 3101.17,504.83 3101.67,456.163 3102.5,407.5C 3142.66,397.042 3183,387.375 3223.5,378.5C 3223.67,441.168 3223.5,503.834 3223,566.5C 3213.47,635.675 3176.97,684.509 3113.5,713C 3047.34,737.051 2987.18,726.884 2933,682.5C 2903.63,706.923 2869.8,721.09 2831.5,725C 2645.5,725.667 2459.5,725.667 2273.5,725C 2234.62,721.55 2200.95,706.717 2172.5,680.5C 2143.53,706.476 2109.53,721.31 2070.5,725C 2053.5,725.5 2036.5,725.667 2019.5,725.5C 2019.83,737.518 2019.5,749.518 2018.5,761.5C 1938.33,814.752 1858.33,868.252 1778.5,922C 1776.96,923.187 1775.29,923.52 1773.5,923C 1752.12,891.08 1730.62,859.247 1709,827.5C 1707.81,825.956 1707.48,824.289 1708,822.5C 1756.24,789.961 1804.74,757.794 1853.5,726C 1780.94,728.387 1726.11,698.554 1689,636.5C 1665.87,594.449 1660.2,550.115 1672,503.5C 1693.56,436.611 1738.39,394.444 1806.5,377C 1813.8,375.72 1821.13,374.72 1828.5,374C 1892.17,373.5 1955.83,373.333 2019.5,373.5C 2019.5,450.5 2019.5,527.5 2019.5,604.5C 2034.17,604.667 2048.84,604.5 2063.5,604C 2089.1,599.063 2104.94,583.896 2111,558.5C 2111.5,508.168 2111.67,457.834 2111.5,407.5C 2151.73,397.358 2192.07,387.691 2232.5,378.5C 2232.03,439.195 2232.53,499.861 2234,560.5C 2239.28,582.446 2252.78,596.612 2274.5,603C 2457.47,604.659 2640.47,604.993 2823.5,604C 2843.79,600.382 2858.29,589.215 2867,570.5C 2876.86,537.397 2866.36,513.23 2835.5,498C 2831.58,496.687 2827.58,495.687 2823.5,495C 2657.17,494.5 2490.83,494.333 2324.5,494.5C 2324.17,454.161 2324.5,413.828 2325.5,373.5C 2433.39,311.059 2541.06,248.392 2648.5,185.5 Z M 1837.5,493.5 C 1857.5,493.5 1877.5,493.5 1897.5,493.5C 1897.5,530.5 1897.5,567.5 1897.5,604.5C 1874.79,604.935 1852.13,604.435 1829.5,603C 1803.58,594.397 1789.58,576.397 1787.5,549C 1789.29,523.089 1802.29,505.422 1826.5,496C 1830.35,495.367 1834.01,494.533 1837.5,493.5 Z" />
  <path d="M 2132.5,206.5 C 2165.17,206.5 2197.83,206.5 2230.5,206.5C 2230.5,238.167 2230.5,269.833 2230.5,301.5C 2197.83,301.667 2165.16,301.5 2132.5,301C 2131.17,269.5 2131.17,238 2132.5,206.5 Z" />
  <path d="M 3023.5,208.5 C 3092.17,208.5 3160.83,208.5 3229.5,208.5C 3229.5,239.5 3229.5,270.5 3229.5,301.5C 3160.83,301.5 3092.17,301.5 3023.5,301.5C 3023.5,270.5 3023.5,239.5 3023.5,208.5 Z" />
  <path d="M 152.5,378.5 C 154.5,378.5 156.5,378.5 158.5,378.5C 158.333,437.501 158.5,496.501 159,555.5C 163.712,582.545 179.545,598.712 206.5,604C 334.167,604.667 461.833,604.667 589.5,604C 616.548,598.951 632.048,582.784 636,555.5C 636.5,506.168 636.667,456.834 636.5,407.5C 677.099,397.517 717.766,387.85 758.5,378.5C 758.667,441.168 758.5,503.834 758,566.5C 749.186,633.676 714.353,681.843 653.5,711C 638.403,717.365 622.736,721.699 606.5,724C 537.019,725.15 467.519,725.65 398,725.5C 331.833,725.333 265.667,725.167 199.5,725C 138.105,718.541 91.6055,689.041 60,636.5C 45.4205,610.76 37.7539,583.093 37,553.5C 36.3333,505.167 36.3333,456.833 37,408.5C 75.5671,398.401 114.067,388.401 152.5,378.5 Z" />
  <path d="M 295.5,801.5 C 364.071,801.169 432.571,801.502 501,802.5C 501.833,848.17 501.667,893.837 500.5,939.5C 468.751,950.435 436.751,960.435 404.5,969.5C 404.5,944.5 404.5,919.5 404.5,894.5C 368.167,894.5 331.833,894.5 295.5,894.5C 295.5,863.5 295.5,832.5 295.5,801.5 Z" />
</svg>